<?xml version="1.0" encoding="UTF-8"?>
<svg id="Layer_1" data-name="Layer 1" xmlns="http://www.w3.org/2000/svg" viewBox="0 0 2000 903.03">
  <defs>
    <style>
      .cls-1 {
        fill: #002b64;
      }
    </style>
  </defs>
  <path class="cls-1" d="M.35,111.78v235.42c0,61.62,50.14,111.77,111.77,111.77h294.07c29.3,0,53.12-23.81,53.12-53.12v-181.26c0-29.3-23.82-53.16-53.12-53.16h-181.26c-29.3.04-53.16,23.86-53.16,53.16v62.95h157.44v20.69c0,11.34-9.29,20.63-20.68,20.63h-157.4c-11.35,0-20.63-9.29-20.63-20.63v-113.61c0-35.54,28.92-64.47,64.42-64.47h211.27c29.3,0,53.12-23.86,53.12-53.12V0H112.12C50.49,0,.35,50.15.35,111.78Z"/>
  <path class="cls-1" d="M1999.65,347.24v-122.66c0-29.3-23.81-53.16-53.12-53.16h-275.7v-20.65c0-11.38,9.26-20.63,20.64-20.63h255.06c29.31,0,53.12-23.82,53.12-53.12V0h-347.19C1590.84,0,1540.69,50.15,1540.69,111.78v122.61c0,29.34,23.82,53.16,53.12,53.16h275.7v20.69c0,11.38-9.26,20.63-20.63,20.63h-255.07c-29.3,0-53.12,23.86-53.12,53.12v76.98h347.15c61.67,0,111.81-50.11,111.81-111.72Z"/>
  <path class="cls-1" d="M1026.77,111.78v347.19h77.02c29.31,0,53.16-23.81,53.16-53.12v-255.07c0-11.38,9.26-20.63,20.6-20.63h20.63v328.82h63c29.3,0,53.16-23.81,53.16-53.17v-255.02c0-11.38,9.26-20.63,20.65-20.63h20.63v328.82h76.98c29.3,0,53.17-23.81,53.2-53.12V0h-347.18C1076.97,0,1026.77,50.15,1026.77,111.78Z"/>
  <path class="cls-1" d="M972.56,405.85v-76.99h-308.18c-11.39,0-20.64-9.29-20.64-20.63v-20.69h275.65c29.3,0,53.17-23.81,53.17-53.16v-62.95h-328.82v-20.65c0-11.38,9.25-20.63,20.64-20.63h255.02c29.3,0,53.17-23.86,53.17-53.12V0h-347.2C563.71,0,513.56,50.15,513.56,111.78v235.42c0,61.62,50.14,111.77,111.8,111.77h294.03c29.3,0,53.17-23.81,53.17-53.12Z"/>
  <path class="cls-1" d="M0,653.51v204.75C0,882.88,16.42,899.29,41.78,899.29h129.04v-27.6H41.78c-8.58,0-13.44-5.23-13.44-13.44v-92.11h135.01v-27.6H28.35v-85.04c0-8.21,4.85-13.43,13.44-13.43h129.04v-27.59H41.78C16.42,612.49,0,628.53,0,653.51Z"/>
  <path class="cls-1" d="M311.08,612.49h-87.27v286.81h87.27c80.92,0,111.89-70.5,111.89-143.59s-30.97-143.22-111.89-143.22ZM311.08,871.7h-59.3v-231.62h59.3c62.65,0,83.17,60.8,83.17,115.62s-20.52,116-83.17,116Z"/>
  <path class="cls-1" d="M638.53,781.44c0,48.48-16.42,93.98-66.01,93.98h-10.83c-49.96,0-66.01-45.5-66.01-93.98v-168.95h-27.97v168.95c0,61.53,20.52,121.59,93.98,121.59h10.83c73.47,0,93.97-60.05,93.97-121.59v-168.95h-27.96v168.95Z"/>
  <path class="cls-1" d="M828.36,636.36h5.6c23.48,0,42.87,8.57,57.42,24.24l21.27-19.76c-20.89-22.01-47.75-32.09-78.69-32.09h-5.6c-81.31,0-117.1,70.5-117.1,146.96s35.79,147.32,117.1,147.32h5.6c30.94,0,57.8-10.08,78.69-32.08l-21.27-19.76c-14.55,15.66-33.94,24.24-57.42,24.24h-5.6c-61.53,0-88.02-58.18-88.02-119.72s26.48-119.34,88.02-119.34Z"/>
  <path class="cls-1" d="M1070.03,612.49h-3.73c-15.67,0-28.72,7.08-34.31,21.63-36.93,95.47-71.25,233.46-78.33,265.18h29.84c7.45-30.96,15.29-62.66,23.87-93.25h121.58c8.21,30.96,16.41,62.28,23.88,93.25h29.83c-7.08-31.72-41.39-169.71-78.31-265.18-5.59-14.55-18.65-21.63-34.32-21.63ZM1015.2,778.45c13.43-47.74,27.6-92.87,41.76-131.65,1.51-4.1,4.86-6.72,9.34-6.72h3.73c4.47,0,7.83,2.62,9.32,6.72,14.17,38.78,28.35,83.91,41.77,131.65h-105.91Z"/>
  <polygon class="cls-1" points="1182.87 640.08 1271.64 640.08 1271.64 899.29 1299.62 899.29 1299.62 640.08 1388.36 640.08 1388.36 612.49 1182.87 612.49 1182.87 640.08"/>
  <rect class="cls-1" x="1436.84" y="612.49" width="27.98" height="286.8"/>
  <path class="cls-1" d="M1634.14,608.75c-81.31,0-117.12,70.5-117.12,146.95s35.8,147.32,117.12,147.32,117.1-70.87,117.1-147.32-35.81-146.95-117.1-146.95ZM1634.14,875.42c-61.17,0-88.03-58.18-88.03-119.72s26.86-119.34,88.03-119.34,88.01,58.18,88.01,119.34-26.85,119.72-88.01,119.72Z"/>
  <path class="cls-1" d="M1972.02,612.49v232.73l-139.49-218.18c-5.97-8.96-11.54-14.55-20.12-14.55-9.71,0-16.42,8.21-16.42,21.63v265.17h27.98v-232.73l139.47,218.18c5.98,8.94,11.57,14.55,20.14,14.55,9.71,0,16.42-8.21,16.42-21.63v-265.17h-27.98Z"/>
</svg>