<?xml version="1.0" encoding="utf-8"?>
<!-- Generator: Adobe Illustrator 23.0.2, SVG Export Plug-In . SVG Version: 6.00 Build 0)  -->
<svg version="1.1" id="Layer_1" xmlns="http://www.w3.org/2000/svg" xmlns:xlink="http://www.w3.org/1999/xlink" x="0px" y="0px"
	 viewBox="0 0 510.24 170.08" style="enable-background:new 0 0 510.24 170.08;" xml:space="preserve">
<style type="text/css">
	.st0{fill:#F39D1F;}
	.st1{fill:#FFFFFF;}
	.st2{fill:#F3C716;}
	.st3{fill:#27AAE1;}
</style>
<g>
	<path d="M197.1,114.34l4.02-9.42l3.9,9.42H197.1z M203.47,101.74c-0.55-0.52-2.1-0.75-3.17-0.47c-1.08,0.27-1.88,1.47-3.15,4.37
		c-1.27,2.9-7.27,17.48-7.27,17.48h3.67l2.17-5.64h10.44l2.17,5.64h4.12C212.47,123.12,204.97,103.84,203.47,101.74"/>
	<path d="M264.16,114.34l4.02-9.42l3.9,9.42H264.16z M270.54,101.74c-0.55-0.52-2.1-0.75-3.17-0.47c-1.08,0.27-1.87,1.47-3.15,4.37
		c-1.27,2.9-7.27,17.48-7.27,17.48h3.67l2.17-5.64h10.45l2.18,5.64h4.12C279.53,123.12,272.04,103.84,270.54,101.74"/>
	<path d="M228.59,101.64v14.76c0,1.86-1.21,6.93-7.93,6.93c-2.84,0-4.77-0.46-8-3.77l2.49-2.33c1.98,2.44,3.68,2.77,5.3,2.77
		c1.99,0,4.4-1.09,4.4-4.49v-12.46c0-1.11,0.47-1.89,1.73-1.92C227.84,101.12,228.59,101.64,228.59,101.64"/>
	<path d="M281.67,123.12h3.78v-16.68l11.15,16.68h3.8v-21.47c-0.94-0.42-1.88-0.65-2.67-0.37c-0.79,0.28-1.02,0.99-1.02,1.5v14.43
		l-10.35-15.4c-0.91-0.54-1.76-0.75-2.82-0.62c-1.06,0.14-1.86,0.75-1.86,1.91v19.72V123.12z"/>
	<path d="M358,123.12h3.57v-21.48c-0.94-0.42-1.88-0.65-2.67-0.37c-0.79,0.28-1.02,0.99-1.02,1.5v20.35H358z"/>
	<path d="M448.74,123.12h3.57v-21.36c-0.19-0.42-1.88-0.8-2.67-0.51c-0.79,0.28-1.02,0.99-1.02,1.5v20.37H448.74z"/>
	<path d="M372.08,123.12h4.31l8.99-21.29c-1.36-0.82-1.95-0.74-2.88-0.58c-0.93,0.15-1.41,1.23-1.56,1.58
		c-0.15,0.35-6.65,16.48-6.65,16.48l-7.22-17.78c-0.91-0.32-2.32-0.63-2.92-0.06c-0.61,0.56-0.89,1.17-0.52,2.25
		S372.08,123.12,372.08,123.12"/>
	<path d="M386.92,123.12h16.22v-3.42h-12.45v-6h11.65c0,0,0.52-0.76,0.52-1.93c0-1.17-1.04-1.52-1.78-1.52h-10.37v-5.57l12.09,0.01
		c0,0,0.52-0.76,0.52-1.93c0-1.17-1.04-1.56-1.78-1.56h-12.21c-1.2,0-2.42,0.25-2.42,2.59S386.92,123.12,386.92,123.12"/>
	<path d="M414.7,112.12c-2.72,0.16-4.36-0.24-4.36-0.24v-7.24c0,0,1.72-0.22,2.51-0.22c4.2,0,7.13,0.8,7.13,3.85
		C419.98,111.32,417.42,111.96,414.7,112.12 M419.78,114.23c3.17-1.39,4.04-3.7,4.08-5.96c0.04-2.26-0.79-7.12-9.92-7.12
		c-4.93,0-7.29,0.06-7.29,2.59v19.08v0.3h3.85V115c0,0,2.13,0.21,3.04,0.21c0.91,0,2.49-0.06,2.65-0.12
		c0.58,0.77,3.91,6.76,4.43,8.02h4.49C424.23,121.48,420.46,114.87,419.78,114.23"/>
	<path d="M426.69,120.84c2.53,1.43,5.44,2.5,9.37,2.5c3.93,0,8.99-1.4,8.99-6.65c0-5.25-5.68-5.58-9.13-6.15
		c-3.45-0.57-5.33-1.07-4.98-3.57c0.35-2.5,3.66-2.5,5.6-2.42c1.94,0.08,5.14,1.1,6.24,2.13c1.02-1.08,1.94-2.83-0.03-3.93
		c-1.96-1.1-4.79-2.05-10.07-1.4c-3.07,0.51-5.28,2.67-5.55,5.2c-0.27,2.53,0.19,5.73,7.13,7.02c5.17,0.92,7.4,1.11,6.76,4.05
		c-0.75,2.37-4.31,2.23-6.33,2.1c-1.86-0.16-5.33-1.4-6.38-2.15L426.69,120.84z"/>
	<path d="M462.4,123.12h3.68v-18.47h8.04c0,0,0.75-1.13,0.49-2.2c-0.26-1.07-0.94-1.23-2.18-1.23h-17.81
		c-0.64,1.69-0.55,2.14-0.3,2.64c0.25,0.51,0.74,0.79,1.85,0.79h6.25L462.4,123.12z"/>
	<path d="M488.46,114.88v8.24h-3.78v-8.24l-8.31-12.78c0,0,1.15-0.8,1.8-0.91c0.75-0.12,1.27,0.08,1.55,0.53l6.88,9.9l6.8-9.8
		c0.41-0.56,1.14-0.82,2.13-0.58s1.6,0.85,1.6,0.85L488.46,114.88z"/>
	<path d="M200.83,77.91c2.99,0,5.58-1.2,7.67-3.48c2.09-2.29,3.19-5.08,3.19-8.27V56.6h-3.88v9.06c0,2.19-0.6,4.18-1.69,5.77
		c-1.3,1.8-3.09,2.79-5.28,2.79c-2.19,0-3.98-0.89-5.28-2.79c-1.09-1.59-1.69-3.48-1.69-5.77V56.6h-3.88v9.56
		c0,3.29,1.09,6.08,3.28,8.37C195.35,76.71,197.84,77.91,200.83,77.91"/>
	<rect x="199.03" y="49.73" width="3.78" height="3.79"/>
	<path d="M279.39,72.13h0.8h5.97h0.79h25.79h1h3.09h3.49h4.08h18.42v-3.78h-9.66c-0.8-0.9-1.2-2.09-1.2-3.68
		c0-1.29,0.3-2.39,0.9-3.29c0.7-0.99,1.69-1.49,2.89-1.49c1.79,0,2.99,0.9,3.58,2.59l3.29-1.59c-1.1-2.79-3.68-4.38-6.77-4.38
		c-2.29,0-4.18,0.8-5.68,2.39c-1.49,1.6-2.19,3.58-2.19,5.88c0,1.29,0.2,2.49,0.8,3.58h-4.38h-0.6h-3.48h-3.49h-3.09h-1h-2.69
		c-0.3-4.78-1.99-8.07-5.18-9.96c-1.79-1.09-3.88-1.69-6.27-1.69c-1.5,0-2.99,0.3-4.48,0.99c-1.39,0.6-2.59,1.39-3.68,2.39
		c0.89,1.3,1.49,2.29,1.89,2.99c0.79-0.9,1.89-1.59,3.08-2.19c1.1-0.4,1.99-0.7,2.89-0.7c2.49,0,4.48,0.9,5.87,2.59
		c1.19,1.49,1.79,3.28,1.79,5.47h-19.02h-0.79h-5.97h-0.8h-5.67h-1.1h-2.29v-0.99c0-2.29-0.7-4.18-2.09-5.68
		c-1.39-1.49-3.29-2.29-5.58-2.29c-2.29,0-4.18,0.79-5.58,2.19c-1.39,1.49-2.09,3.39-2.09,5.68v1.09h-2.79h-0.9h-5.97h-0.8h-5.97
		h-0.8h-5.98H231h-5.58h-1.2h-1.09c-1.39,0-2.39-0.2-2.99-0.6c-0.7-0.5-1.09-1.59-1.09-3.28V50.03h-3.79v15.83
		c0,1.89,0.4,3.39,1.4,4.48c1,1.19,2.39,1.79,4.28,1.79h3.29h1.2H231h0.8h5.98h0.8h5.97h0.8h5.87h0.9h4.38
		c1.49,1.99,3.49,2.99,6.17,2.99s4.78-1,6.17-2.99h3.78h1.1H279.39z M265.45,70.34c-0.7,0.9-1.59,1.29-2.79,1.29
		c-2.39,0-3.88-1.99-3.88-4.48c0-1.19,0.3-2.19,0.89-2.99c0.7-0.89,1.59-1.39,2.79-1.39c1.19,0,2.19,0.5,2.89,1.39
		c0.6,0.9,0.9,1.89,0.9,3.09C266.34,68.45,266.05,69.54,265.45,70.34"/>
	<rect x="296.71" y="75.82" width="3.78" height="3.88"/>
	<rect x="358.25" y="46.74" width="3.78" height="3.88"/>
	<rect x="364.72" y="46.74" width="3.78" height="3.88"/>
	<path d="M413.12,72.13h6.27h0.99h5.78h0.9h5.28c1.49,1.99,3.58,3.08,6.17,3.08c4.58,0,7.67-3.38,7.67-7.86
		c0-4.48-3.09-7.97-7.67-7.97c-4.58,0-7.77,3.28-7.77,7.87c0,0.3,0,0.6,0.1,0.89v0.2h-3.88h-0.9h-5.77h-0.99h-5.48
		c-0.8,0-1.3,0-1.49-0.1c-0.4-0.11-0.89-0.4-1.4-0.9c1.2-0.9,2.59-2.09,3.98-3.88c1.3-1.59,2.09-2.89,2.39-3.79
		c-2.79-2.39-5.98-3.58-9.76-3.58c-3.19,0-6.27,0.89-9.26,2.78v3.58c1.29,0.3,2.69,0.9,4.08,1.89c1.39,0.9,2.39,1.8,2.89,2.49
		c-0.8,0.6-1.69,0.9-2.49,1.09c-0.7,0.2-1.49,0.2-2.69,0.2h-4.88h-0.9h-5.97h-0.6h-5.97h-0.8h-5.87h-1h-1.49
		c-2.59,0-3.88-1.39-3.88-4.08V53.21h-8.46c-4.38,0-7.07,3.18-7.07,8.36c0,4.78,2.69,8.07,7.07,8.07c1.69,0,3.19-0.9,4.38-2.58
		c0.79,3.08,3.18,5.08,6.17,5.08h3.19h1h5.88h0.79h5.97h0.8h5.97h0.9h4.88c2.59,0,5.08-0.8,7.57-2.49c0.6,0.7,1.29,1.2,2.19,1.59
		C411.12,71.93,412.12,72.13,413.12,72.13 M438.41,62.77c2.29,0,3.88,1.99,3.88,4.58c0,2.59-1.49,4.38-3.68,4.38
		c-2.29,0-3.89-2-3.89-4.48C434.72,64.56,436.31,62.77,438.41,62.77 M364.82,61.28c0,2.89-1.49,5.28-3.98,5.28
		c-2.29,0-3.78-2.29-3.78-4.88c0-3.18,1.69-5.28,4.28-5.28h3.49V61.28z M402.46,60.88c1.79-0.9,3.59-1.4,5.28-1.4
		c1.79,0,3.38,0.4,4.98,1.4c-0.5,0.69-1.1,1.49-1.89,2.29c-0.89,0.9-1.69,1.49-2.49,1.89C406.64,62.97,404.65,61.67,402.46,60.88"/>
	<path d="M455.43,72.13h3.28h1.2h5.58h0.8h5.78h1h23.2v-2.39c0-5.38-1.59-9.05-4.88-11.25c-1.89-1.3-4.08-1.89-6.57-1.89
		c-1.5,0-2.99,0.3-4.58,1c-1.4,0.6-2.59,1.39-3.68,2.39c0.89,1.29,1.49,2.29,1.89,2.99c0.8-0.9,1.89-1.69,3.09-2.19
		c1.09-0.4,1.99-0.7,2.89-0.7c2.49,0,4.48,0.9,5.87,2.59c1.2,1.49,1.79,3.29,1.79,5.48h-19.02h-1h-5.78h-0.8h-5.58h-1.2h-1.1
		c-1.39,0-2.39-0.2-2.99-0.6c-0.7-0.49-1.09-1.59-1.09-3.28V49.93h-3.78v15.83c0,1.89,0.4,3.39,1.39,4.48
		C452.15,71.63,453.54,72.13,455.43,72.13"/>
	<rect x="482.81" y="75.91" width="3.78" height="3.89"/>
	<rect x="189.67" y="86.94" class="st0" width="306.58" height="0.9"/>
	<path d="M241.97,118.82l-5.98-12.04l-1.04,16.34h-3.64l1.2-21.36c1.68-0.79,2.52-0.66,3.33-0.46c0.82,0.2,1.43,1.04,1.93,2.04
		c0.51,0.99,5.47,11.1,5.47,11.1h0c0,0,4.96-10.11,5.47-11.1c0.51-0.99,1.12-1.83,1.93-2.04c0.81-0.2,1.65-0.33,3.33,0.46l1.2,21.36
		h-3.64l-1.04-16.34l-5.98,12.04H241.97z"/>
	<path d="M321.4,123.33c-6.55,0-9.89-3.67-9.89-10.04v-11.71c0.27-0.27,1.39-0.48,2.38-0.43c0.99,0.05,1.45,0.68,1.45,1.69v9.48
		c0,7.28,3.68,7.58,6.04,7.58h0c2.36,0,6.04-0.3,6.04-7.58v-9.48c0-1.01,0.47-1.64,1.46-1.69c0.99-0.05,2.11,0.16,2.38,0.43v11.71
		c0,6.37-3.34,10.04-9.89,10.04H321.4z"/>
	<path d="M335.03,123.12h3.78v-16.68l11.15,16.68h3.8v-21.48c-0.94-0.42-1.88-0.65-2.67-0.37c-0.79,0.28-1.02,0.99-1.02,1.5v14.44
		l-10.35-15.4c-0.91-0.54-1.76-0.75-2.82-0.62c-1.06,0.14-1.86,0.75-1.86,1.91v19.72V123.12z"/>
	<path class="st1" d="M89.94,8.22c42.43,0,76.83,34.39,76.83,76.82s-34.4,76.82-76.83,76.82c-42.43,0-76.82-34.39-76.82-76.82
		S47.51,8.22,89.94,8.22"/>
	<path class="st2" d="M90.48,151.99c3.29-4.1,14.24-15.67,32.31-18.24c-0.36-1.51-0.8-2.94-1.25-4.27
		c-0.89-2.31-2.05-4.54-3.38-6.67c-1.96-3.02-4.36-5.61-7.12-7.83c-1.96-1.6-4.09-2.94-6.41-4.01c-3.12-1.51-6.59-2.58-10.15-3.11
		c-1.51-0.18-3.03-0.36-4.63-0.36c-1.6,0-3.2,0.09-4.71,0.36c-3.56,0.53-7.03,1.6-10.14,3.11c-2.32,1.15-4.45,2.49-6.32,4.09
		c-2.76,2.23-5.16,4.89-7.12,7.83c-1.34,2.05-2.49,4.27-3.38,6.58c-0.54,1.33-0.89,2.76-1.25,4.18
		C75.79,135.88,87.1,147.9,90.48,151.99"/>
	<path class="st3" d="M159.45,88.92c2.2-38.41-27.31-71.45-65.63-73.65c-1.32-0.09-2.73-0.09-4.05-0.09
		c-36.91,0-67.49,28.9-69.6,65.81c-1.15,19.91,6.34,39.38,20.61,53.56c1.76-0.35,3.46-0.71,5.13-0.89L60.43,36.5l0.09-1.41h3.87
		c1.58,0,1.41,1.41,1.41,1.41v4.76h4.76v-4.85c0-1.59,1.32-1.41,1.32-1.41h2.21c0,0,1.23-0.09,1.23,1.41v4.85h4.76v-4.85
		c0-1.5,1.14-1.41,1.14-1.41h2.47c1.15,0,1.15,1.41,1.15,1.41v4.85h4.76v-4.85c0,0-0.09-1.32,1.24-1.32h2.56
		c0.97,0,0.97,1.41,0.97,1.41v4.76h4.76v-4.85c0,0-0.09-1.41,1.41-1.41h2.29c1.15,0,1.06,1.32,1.06,1.32v4.93h4.76v-4.85
		c0,0-0.18-1.41,1.41-1.41h2.02c1.41,0,1.32,1.41,1.32,1.41v4.85h4.76v-4.85c0,0-0.18-1.41,1.15-1.41h3.97l10.99,98.66
		c1.67,0.09,3.46,0.18,5.22,0.45C151.26,122.13,158.48,106.09,159.45,88.92"/>
	<path d="M90.65,110.85L90.65,110.85c-0.35,0-0.71,0.27-0.71,0.71v13.39h0.27h1.14v-13.39C91.26,111.12,91,110.85,90.65,110.85"/>
	<path d="M80.08,112.88L80.08,112.88c-0.36,0.18-0.53,0.53-0.36,0.88l4.93,12.07c0.44-0.18,0.88-0.26,1.32-0.44l-4.93-12.16
		C80.87,112.97,80.43,112.79,80.08,112.88"/>
	<path d="M71.18,118.78L71.18,118.78c-0.26,0.27-0.26,0.71,0,0.97l8.63,8.81c0.35-0.26,0.71-0.53,1.06-0.79l-8.81-8.99
		C71.88,118.52,71.44,118.52,71.18,118.78"/>
	<path d="M65.1,127.59L65.1,127.59c-0.17,0.35,0,0.71,0.35,0.88l10.57,4.58c0.26-0.35,0.44-0.79,0.7-1.14l-10.75-4.67
		C65.63,127.06,65.28,127.24,65.1,127.59"/>
	<path d="M110.03,118.78L110.03,118.78c-0.27-0.26-0.71-0.26-0.97,0l-9.16,9.34c0.35,0.26,0.71,0.53,1.06,0.88l9.08-9.25
		C110.38,119.49,110.29,119.05,110.03,118.78"/>
	<path d="M116.11,127.59L116.11,127.59c-0.18-0.35-0.53-0.53-0.88-0.35l-11.45,4.93c0.26,0.35,0.44,0.79,0.7,1.14l11.28-4.93
		C116.11,128.3,116.28,127.94,116.11,127.59"/>
	<path class="st0" d="M76.76,140.39c0.44-6.87,6.13-12.27,13.1-12.27c7.22,0,13.1,5.67,13.19,12.89
		c-6.43,4.06-10.72,8.78-12.57,10.98C88.45,149.62,83.9,144.59,76.76,140.39 M166.76,85.04c0,42.46-34.36,76.82-76.82,76.82
		c-42.46,0-76.82-34.36-76.82-76.82S47.48,8.22,89.94,8.22C132.41,8.22,166.76,42.67,166.76,85.04 M90.47,156.84L90.47,156.84
		c-0.88-1.15-16.47-20.17-46.16-16.39c2.38,1.94,4.93,3.79,7.49,5.46C57.87,145.74,75.32,146.27,90.47,156.84 M128.09,145.91
		c2.64-1.67,5.2-3.52,7.67-5.55c-28.98-3.35-44.23,15.33-45.19,16.56C104.92,146.88,121.22,145.83,128.09,145.91 M161.74,85.04
		c0-39.64-32.16-71.8-71.8-71.8c-39.64,0-71.79,32.15-71.79,71.8c0,20.53,8.63,39.03,22.46,52.06
		c31.98-6.26,48.72,17.44,48.89,17.71l1.06,1.58l1.06-1.58c0.18-0.26,16.47-23.52,47.75-17.88h0.18
		C153.2,123.89,161.74,105.48,161.74,85.04"/>
	<path d="M29.15,83.54l-1.14,0.79c0,0-0.09,0-0.09-0.09c-0.09,0-0.09-0.09-0.09-0.09l-0.09-0.09V83.9c0-0.09,0-0.18,0.09-0.27
		c0.09-0.09,0.18-0.18,0.27-0.27l0.88-0.61c0.09-0.09,0.27-0.18,0.35-0.18c0.09-0.09,0.26-0.09,0.35-0.09c0.09,0,0.18,0,0.26,0.09
		c0.09,0,0.18,0.09,0.18,0.09v4.85h-0.88v-3.96H29.15z"/>
	<path d="M33.38,85.83c-0.09,0-0.09,0.09-0.26,0.09c-0.09,0-0.18,0.09-0.35,0.09c-0.26,0-0.53-0.09-0.79-0.17
		c-0.26-0.09-0.44-0.18-0.53-0.36c-0.18-0.18-0.26-0.35-0.35-0.52c-0.09-0.18-0.09-0.44-0.09-0.62c0-0.26,0.09-0.53,0.18-0.7
		c0.09-0.27,0.26-0.44,0.44-0.62c0.18-0.18,0.35-0.27,0.62-0.35c0.26-0.09,0.53-0.17,0.79-0.17c0.26,0,0.53,0.09,0.79,0.09
		c0.26,0.09,0.44,0.17,0.62,0.35c0.18,0.17,0.27,0.35,0.44,0.53c0.09,0.18,0.18,0.44,0.18,0.71c0,0.35-0.09,0.7-0.26,0.97
		c-0.18,0.26-0.35,0.61-0.53,0.88l-1.24,1.59h-0.97L33.38,85.83z M31.89,84.25c0,0.18,0,0.35,0.09,0.44
		c0.09,0.18,0.18,0.27,0.26,0.36c0.09,0.09,0.17,0.17,0.35,0.17c0.18,0.09,0.26,0.09,0.44,0.09c0.18,0,0.35,0,0.44-0.09
		c0.18-0.09,0.26-0.09,0.35-0.26c0.09-0.09,0.18-0.18,0.26-0.36c0.09-0.09,0.09-0.26,0.09-0.44c0-0.18,0-0.26-0.09-0.44
		c-0.09-0.17-0.18-0.27-0.26-0.36c-0.09-0.08-0.18-0.17-0.35-0.26c-0.18-0.09-0.26-0.09-0.44-0.09c-0.18,0-0.35,0-0.44,0.09
		c-0.18,0.09-0.26,0.09-0.35,0.26c-0.09,0.09-0.18,0.18-0.26,0.36C31.89,83.98,31.89,84.07,31.89,84.25"/>
	<path d="M36.55,85.04c-0.26-0.18-0.44-0.36-0.61-0.53c-0.09-0.18-0.18-0.44-0.18-0.61c0-0.18,0.09-0.44,0.18-0.62
		c0.09-0.18,0.18-0.35,0.35-0.44c0.18-0.09,0.36-0.26,0.62-0.26c0.26-0.09,0.53-0.09,0.79-0.09c0.26,0,0.53,0,0.79,0.09
		c0.26,0.09,0.44,0.18,0.62,0.26c0.18,0.09,0.26,0.27,0.35,0.44c0.09,0.17,0.18,0.35,0.18,0.62c0,0.18-0.09,0.44-0.18,0.61
		c-0.09,0.17-0.27,0.35-0.62,0.53c0.18,0.09,0.27,0.18,0.44,0.27c0.09,0.08,0.18,0.17,0.26,0.26c0.09,0.09,0.09,0.18,0.18,0.35v0.35
		c0,0.26-0.09,0.44-0.18,0.62c-0.09,0.18-0.26,0.35-0.44,0.44c-0.18,0.09-0.35,0.26-0.62,0.26c-0.26,0.09-0.53,0.09-0.88,0.09
		c-0.35,0-0.61,0-0.88-0.09c-0.26-0.09-0.44-0.18-0.61-0.26c-0.18-0.09-0.26-0.26-0.44-0.44c-0.09-0.18-0.18-0.35-0.18-0.62v-0.35
		c0-0.09,0.09-0.27,0.18-0.35c0.09-0.09,0.18-0.18,0.27-0.26C36.29,85.22,36.38,85.13,36.55,85.04 M37.7,86.98
		c0.36,0,0.71-0.08,0.88-0.17c0.18-0.18,0.26-0.35,0.26-0.62c0-0.26-0.09-0.44-0.26-0.61c-0.17-0.18-0.53-0.18-0.88-0.18
		c-0.35,0-0.7,0.09-0.88,0.18c-0.18,0.18-0.27,0.35-0.27,0.61c0,0.27,0.09,0.44,0.27,0.62C37.09,86.89,37.35,86.98,37.7,86.98
		 M37.7,84.69c0.36,0,0.62-0.09,0.79-0.26c0.17-0.18,0.26-0.35,0.26-0.53c0-0.27-0.09-0.44-0.26-0.53
		c-0.18-0.17-0.44-0.26-0.79-0.26c-0.35,0-0.61,0.09-0.79,0.26c-0.18,0.18-0.26,0.36-0.26,0.53c0,0.26,0.08,0.44,0.26,0.53
		C37.09,84.51,37.35,84.69,37.7,84.69"/>
	<path d="M41.49,85.04c-0.26-0.18-0.44-0.36-0.61-0.53c-0.09-0.18-0.18-0.44-0.18-0.61c0-0.18,0.09-0.44,0.18-0.62
		c0.09-0.18,0.17-0.35,0.35-0.44c0.18-0.09,0.35-0.26,0.62-0.26c0.26-0.09,0.53-0.09,0.79-0.09c0.26,0,0.53,0,0.79,0.09
		c0.27,0.09,0.44,0.18,0.62,0.26c0.18,0.09,0.27,0.27,0.35,0.44c0.09,0.17,0.18,0.35,0.18,0.62c0,0.18-0.09,0.44-0.18,0.61
		c-0.08,0.17-0.26,0.35-0.61,0.53c0.18,0.09,0.26,0.18,0.44,0.27c0.09,0.08,0.17,0.17,0.26,0.26c0.09,0.09,0.09,0.18,0.18,0.35v0.35
		c0,0.26-0.09,0.44-0.18,0.62c-0.09,0.18-0.26,0.35-0.44,0.44c-0.18,0.09-0.35,0.26-0.62,0.26c-0.27,0.09-0.53,0.09-0.88,0.09
		c-0.35,0-0.61,0-0.88-0.09c-0.27-0.09-0.44-0.18-0.62-0.26c-0.17-0.09-0.26-0.26-0.44-0.44c-0.09-0.18-0.18-0.35-0.18-0.62v-0.35
		c0-0.09,0.09-0.27,0.18-0.35c0.09-0.09,0.17-0.18,0.26-0.26C41.14,85.22,41.31,85.13,41.49,85.04 M42.63,86.98
		c0.35,0,0.7-0.08,0.88-0.17c0.18-0.18,0.26-0.35,0.26-0.62c0-0.26-0.09-0.44-0.26-0.61c-0.18-0.18-0.53-0.18-0.88-0.18
		c-0.35,0-0.7,0.09-0.88,0.18c-0.18,0.18-0.27,0.35-0.27,0.61c0,0.27,0.09,0.44,0.27,0.62C41.93,86.89,42.28,86.98,42.63,86.98
		 M42.63,84.69c0.35,0,0.62-0.09,0.79-0.26c0.18-0.18,0.27-0.35,0.27-0.53c0-0.27-0.09-0.44-0.27-0.53
		c-0.17-0.17-0.44-0.26-0.79-0.26c-0.35,0-0.62,0.09-0.79,0.26c-0.18,0.18-0.26,0.36-0.26,0.53c0,0.26,0.09,0.44,0.26,0.53
		C42.02,84.51,42.28,84.69,42.63,84.69"/>
	<polygon points="135.84,83.36 135.84,87.68 136.81,87.68 136.81,82.75 	"/>
	<path d="M142.1,84.42v3.26h-1.06v-1.85c-0.27,0.26-0.62,0.44-1.15,0.44c-0.7,0-1.23-0.18-1.58-0.53c-0.36-0.36-0.53-0.79-0.53-1.32
		c0-0.53,0.18-0.97,0.62-1.24c0.35-0.35,0.88-0.52,1.5-0.52c0.62,0,1.15,0.17,1.5,0.52C141.92,83.45,142.1,83.9,142.1,84.42
		 M141.04,84.42c0-0.26-0.09-0.53-0.27-0.7c-0.17-0.26-0.44-0.35-0.79-0.35c-0.35,0-0.53,0.09-0.7,0.35
		c-0.18,0.18-0.26,0.44-0.26,0.7c0,0.26,0.09,0.53,0.26,0.71c0.18,0.17,0.44,0.35,0.79,0.35c0.35,0,0.53-0.09,0.7-0.35
		C140.95,84.95,141.04,84.69,141.04,84.42"/>
	<polygon points="147.47,87.68 146.32,87.68 145.36,83.63 144.3,87.68 143.24,87.68 144.65,82.66 146.06,82.66 	"/>
	<polygon points="152.67,87.68 151.52,87.68 150.55,83.63 149.5,87.68 148.44,87.68 149.85,82.66 151.26,82.66 	"/>
	<path d="M93.2,135.26c0,0,0.27-0.09,1.15,0.18c0.97,0.27,1.15,0.71,1.15,0.71l6.08-14.36c0,0,0.18-0.35-0.53-0.79
		c-0.7-0.44-1.41-0.62-2.02-0.62c-0.62,0-0.53,0.18-0.8,0.88C97.96,121.95,93.2,135.26,93.2,135.26"/>
	<path d="M102.28,119.84c0,0-0.26-0.44-1.32-0.79c-1.06-0.44-1.85-0.26-1.85-0.26s5.02-11.63,10.13-24.49
		c6.52-16.3,13.83-34.8,14.18-35.5c0.35-0.79,1.49-0.26,1.23,0.53c-0.09,0.26-6.52,19.38-12.68,36.03
		C107.12,108.3,102.28,119.84,102.28,119.84"/>
	<path d="M94.17,136.4c-0.53-0.26-1.15-0.17-1.15-0.17l-2.73,6.78l2.82-6.61l0.26,0.35c-0.26,0.44-3.08,6.26-3.08,6.26h0.09
		c0.09,0,0.09,0,0.18-0.09c0,0,0.53-1.5,1.68-2.29c1.14-0.79,2.11-1.06,2.11-1.06l0.44-2.82C94.79,136.84,94.79,136.67,94.17,136.4"
		/>
	<path d="M134.28,133.67l-0.97-8.37l-6.17,2.29c-1.06-2.73-2.38-5.37-3.96-7.75l5.9-3.88c-2.73-4.14-5.99-7.75-9.87-10.83l-4.4,5.46
		c-2.29-1.85-4.76-3.43-7.49-4.76l3.08-6.34c-4.32-2.12-9.07-3.61-14.01-4.23l-0.97,7.05c-1.76-0.27-3.61-0.35-5.46-0.35
		s-3.7,0.18-5.55,0.35l-0.97-7.05c-4.93,0.71-9.69,2.11-14.01,4.23l3.08,6.43c-2.64,1.32-5.11,2.91-7.4,4.76l-4.49-5.55
		c-3.79,3.08-7.14,6.69-9.87,10.83l5.99,3.88c-1.59,2.38-2.91,5.02-3.97,7.75l-5.72-2.2l-1.23,8.28c1.85-0.18,3.61-0.26,5.37-0.26
		c2.11,0,4.15,0.03,6.09,0.3c0.35-1.41,0.69-2.77,1.22-4.09c0.89-2.29,2.03-4.5,3.35-6.52c1.94-2.91,4.32-5.55,7.05-7.75
		c1.94-1.59,4.05-2.91,6.25-4.05c3.09-1.5,6.52-2.55,10.05-3.08c1.49-0.18,3.08-0.35,4.67-0.35c1.59,0,3.08,0.08,4.58,0.35
		c3.52,0.53,6.96,1.5,10.04,3.08c2.29,1.06,4.41,2.47,6.34,3.96c2.73,2.2,5.11,4.85,7.05,7.75c1.32,2.03,2.47,4.23,3.35,6.61
		c0.53,1.41,0.97,2.77,1.23,4.18C126.35,133.44,130.23,133.32,134.28,133.67"/>
</g>
</svg>
