<?xml version="1.0" encoding="UTF-8" standalone="no"?>
<!DOCTYPE svg PUBLIC "-//W3C//DTD SVG 1.1//EN" "http://www.w3.org/Graphics/SVG/1.1/DTD/svg11.dtd">
<svg width="100%" height="100%" viewBox="0 0 106 57" version="1.1" xmlns="http://www.w3.org/2000/svg" xmlns:xlink="http://www.w3.org/1999/xlink" xml:space="preserve" xmlns:serif="http://www.serif.com/" style="fill-rule:evenodd;clip-rule:evenodd;stroke-linejoin:round;stroke-miterlimit:2;">
    <g transform="matrix(1,0,0,1,-22.2519,-46.8337)">
        <rect x="0" y="0" width="150" height="150" style="fill:white;"/>
        <g id="Pfad_808" transform="matrix(1.40835,0,0,1.40835,-181.349,-247.927)">
            <path d="M169.709,209.921L157.789,234.753L157.278,234.753L154.93,209.926L144.567,209.926L149.059,248.075L160.859,248.075L179.159,209.92L169.709,209.921Z" style="fill:rgb(22,22,21);fill-rule:nonzero;"/>
        </g>
        <g id="Pfad_809" transform="matrix(1.40835,0,0,1.40835,-181.349,-247.927)">
            <path d="M207.645,225.74C201.882,223.225 201.022,222.411 201.256,220.408C201.551,217.876 204.463,217.567 205.296,217.54C208.01,217.447 210.554,218.901 211.851,221.287L219.475,216.404C216.892,211.758 211.575,209.04 205.431,209.314C197.169,209.682 191.542,212.93 191.115,220.523C190.87,224.866 194.087,229.185 199.615,231.745C204.963,234.219 206.078,235.719 205.502,237.951C205.165,239.258 203.536,240.496 201.314,240.529C197.347,240.588 195.306,236.648 195.306,236.648C195.231,236.648 185.906,240.016 185.906,240.016C185.906,240.016 190.424,249.726 201.614,249.28C208.671,249.288 216.539,244.68 216.198,236.011C216.022,231.327 213.586,228.349 207.645,225.74Z" style="fill:rgb(22,22,21);fill-rule:nonzero;"/>
        </g>
        <g id="Pfad_810" transform="matrix(1.40835,0,0,1.40835,-181.349,-247.927)">
            <path d="M186.415,209.915L168.083,248.147L171.9,248.147L190.176,209.915L186.415,209.915Z" style="fill:rgb(22,22,21);fill-rule:nonzero;"/>
        </g>
        <g id="Pfad_814" transform="matrix(1.40835,0,0,1.40835,-181.349,-247.927)">
            <path d="M169.709,209.921L157.789,234.753L157.278,234.753L154.93,209.926L144.567,209.926L149.059,248.075L160.859,248.075L179.159,209.92L169.709,209.921Z" style="fill:rgb(22,22,21);fill-rule:nonzero;"/>
        </g>
    </g>
</svg>
